<svg id="Ebene_1" data-name="Ebene 1" xmlns="http://www.w3.org/2000/svg" viewBox="0 0 213.6 213.6"><defs><style>.cls-1{fill:red;}.cls-2{fill:#fff;}</style></defs><title>Zeichenfläche 1</title><path class="cls-1" d="M213.6,106.8A106.8,106.8,0,1,1,106.8,0,106.78,106.78,0,0,1,213.6,106.8Z"/><path class="cls-2" d="M21.8,73.7l24.7-4.4c11.3-2,23.3-1.4,25.7,12.1.9,5.1-.7,10.6-5.5,13.1l.1.5c6.7,1.1,11.6,5,12.8,12,2.2,12-8.2,18.1-18.5,19.9L32.3,132ZM47.4,92.3c3.1-.6,6.5-1.5,5.8-5.5-.8-4.3-4.7-3.3-7.8-2.8l-1.4.3,1.5,8.4Zm2.1,22.3,2.4-.4c3.5-.6,8.5-1.6,7.6-6.4s-6.3-3.8-9.7-3.2l-2.1.4Z"/><path class="cls-2" d="M75,64.2l25.6-4.6c13.1-2.4,25.3,1.2,27.9,15.9,1.6,8.8-1.2,13.1-8.6,17.2l.1.5a16.93,16.93,0,0,1,4.2,2.8l16.1,16.7-24.4,4.4-12.6-17-.4.1,3.4,18.7-20.7,3.7Zm25.4,22.1,1.5-.3c3.5-.6,6.9-1.8,6.1-6.1-.8-4.5-4.1-4.5-7.7-3.8l-1.6.3Z"/><path class="cls-2" d="M130.9,54.1l39.2-7L173,63l-17.9,3.2,1,5.6,16.3-2.9,2.7,15.2L158.8,87l1,5.7,18.5-3.3,2.9,15.9-39.8,7.2Z"/><path class="cls-2" d="M86.8,129.5l2.1-.4c3.3-.6,6.6-.3,7.3,3.7a3.94,3.94,0,0,1-1.3,3.7h0a4.67,4.67,0,0,1,4.3,3.8c.6,3.5-2.1,5.4-5.2,6l-4.1.7Zm3.5,7.3.6-.1c2.1-.4,3.7-1.1,3.2-3.6s-2.2-2.6-4.2-2.2l-.6.1Zm1.4,7.8,1.7-.3c2-.4,4-1.3,3.6-3.8s-3-2.5-5-2.2l-1.3.2Z"/><path class="cls-2" d="M115.6,142.3l-2.6.5-6.5-6.5-.9.2,1.3,7.4-2.2.4-3.1-17.5,2.6-.5a8.7,8.7,0,0,1,4.8,0,4.91,4.91,0,0,1,3,3.8,4.68,4.68,0,0,1-3.3,5.6Zm-10.3-7.6.7-.1c2.2-.4,4.6-1.3,4.1-4s-3.2-2.7-5.3-2.3l-.6.1Z"/><path class="cls-2" d="M116.5,124.1l9.4-1.7.4,2-7.2,1.3.9,4.9,7-1.3.4,2-7,1.3,1.2,6.6,7.2-1.3.4,2-9.4,1.7Z"/><path class="cls-2" d="M134.9,127h0v11.9l-2.2.4.3-18.9,8.5,12.7,3.5-14.9,6.8,17.6-2.2.4L145.5,125h0l-3.1,12.9Z"/><path class="cls-2" d="M152.8,117.6l9.4-1.7.4,2-7.2,1.3.9,4.9,7-1.3.4,2-7,1.3,1.2,6.6,7.2-1.3.4,2-9.4,1.7Z"/><path class="cls-2" d="M166.8,114.2l15.6,11.4-2.3-12.9,2.2-.4,3.3,18.2L170,119.1l2.3,13-2.2.4Z"/><path class="cls-2" d="M96.4,166.2l-1.2,4.7-2.3.4L98,151.6l11.6,16.7-2.3.4-2.8-4Zm2.3-9.8L96.9,164l6.2-1.1Z"/><path class="cls-2" d="M114.5,167.5l-2.2.4-3.1-17.5,2.2-.4Z"/><path class="cls-2" d="M130,164.7l-2.6.5-6.5-6.5-.9.2,1.3,7.4-2.2.4L116,149.2l2.6-.5a8.7,8.7,0,0,1,4.8,0,4.91,4.91,0,0,1,3,3.8,4.68,4.68,0,0,1-3.3,5.6ZM119.7,157l.7-.1c2.2-.4,4.6-1.3,4.1-4s-3.2-2.7-5.3-2.3l-.6.1Z"/><path class="cls-2" d="M135.3,163.7l-2.2.4L130,146.6l2.5-.5c5.4-1,7.4.6,8,3.8.7,3.7-1.9,5.6-5.2,6.2l-1.3.2Zm-1.7-9.2.7-.1c2.2-.4,4.6-1.3,4.1-4s-3.1-2.6-5.3-2.2l-.6.1Z"/><path class="cls-2" d="M161.9,149.4a9.26,9.26,0,0,1-7.5,10.8,9.17,9.17,0,0,1-10.8-7.5,9.3,9.3,0,0,1,18.3-3.3Zm-2.2.4a7.11,7.11,0,1,0-14,2.5,7.13,7.13,0,0,0,8.3,5.8A7.05,7.05,0,0,0,159.7,149.8Z"/><path class="cls-2" d="M178.8,155.9l-2.6.5-6.5-6.5-.9.2,1.3,7.4-2.2.4-3.1-17.5,2.6-.5a8.7,8.7,0,0,1,4.8,0,4.91,4.91,0,0,1,3,3.8,4.68,4.68,0,0,1-3.3,5.6Zm-10.4-7.6.7-.1c2.2-.4,4.6-1.3,4.1-4s-3.2-2.7-5.3-2.3l-.6.1Z"/><path class="cls-2" d="M187,154.4l-2.2.4L182,139.3l-4.2.7-.4-2,10.5-1.9.4,2-4.2.7Z"/></svg>