<?xml version="1.0" encoding="utf-8"?>
<!-- Generator: Adobe Illustrator 24.0.2, SVG Export Plug-In . SVG Version: 6.00 Build 0)  -->
<svg version="1.1" id="Ebene_1" xmlns="http://www.w3.org/2000/svg" xmlns:xlink="http://www.w3.org/1999/xlink" x="0px" y="0px"
	 viewBox="0 0 252 161" style="enable-background:new 0 0 252 161;" xml:space="preserve">
<style type="text/css">
	.st0{fill:url(#SVGID_1_);}
	.st1{fill:url(#SVGID_2_);}
</style>
<g>
	<g>
		<linearGradient id="SVGID_1_" gradientUnits="userSpaceOnUse" x1="144.5093" y1="39.5568" x2="97.3815" y2="144.9012">
			<stop  offset="0" style="stop-color:#1AFFFF"/>
			<stop  offset="0.0054" style="stop-color:#1AFFFF"/>
			<stop  offset="0.9836" style="stop-color:#1AA6FF"/>
			<stop  offset="1" style="stop-color:#1AA6FF"/>
		</linearGradient>
		<path class="st0" d="M250.243,78.82c0,0-22.981-22.96-36.819-36.78c-6.522-6.515-17.01-7.259-24.392-1.737l-8.142,6.103
			l1.793,1.626c0.87,0.79,19.33,19.176,32.385,32.201l-29.05,29.05c-32.921,32.919-86.49,32.922-119.414,0l-29.05-29.052
			l29.05-29.048c15.872-15.872,37.076-24.614,59.707-24.614c2.364,0,4.784,0.103,7.191,0.305c4.791,0.41,9.439-1.819,12.15-5.806
			l11.019-16.213l-2.755-0.703C144.932,1.862,135.644,0.7,126.313,0.7c-29.539,0-57.241,11.432-77.999,32.191L0.971,80.232
			l47.343,47.343c20.801,20.801,48.503,32.258,77.999,32.258s57.198-11.457,77.999-32.258l47.343-47.344L250.243,78.82z"/>
		<linearGradient id="SVGID_2_" gradientUnits="userSpaceOnUse" x1="144.7466" y1="39.6629" x2="97.6188" y2="145.0073">
			<stop  offset="0" style="stop-color:#1AFFFF"/>
			<stop  offset="0.0054" style="stop-color:#1AFFFF"/>
			<stop  offset="0.9836" style="stop-color:#1AA6FF"/>
			<stop  offset="1" style="stop-color:#1AA6FF"/>
		</linearGradient>
		<path class="st1" d="M126.704,122.441c-0.005,0-0.009,0-0.016,0c-11.659-0.005-21.772-4.209-30.058-12.493
			c-8.287-8.285-12.491-18.424-12.493-30.136c-0.004-11.248,4.566-22.259,12.539-30.213c8.034-8.01,16.191-11.277,28.156-11.277
			c0.748,0,1.542,0.027,2.363,0.057c1.278,0.045,4.312,0.375,6.947-0.087c2.635-0.462,4.872-1.717,4.872-1.717
			s-5.61,11.181-10.446,17.159c-2.642,3.268-6.671,3.951-7.996,4.175l-0.188,0.032c-4.459,0.797-6.68,1.722-10.266,5.326
			c-4.624,4.646-6.871,10.064-6.871,16.565c0,6.545,2.246,11.96,6.864,16.556c4.619,4.6,10.049,6.836,16.599,6.836
			c6.552,0,11.981-2.236,16.599-6.835c4.619-4.598,6.865-10.014,6.865-16.557c0-1.041-0.061-2.069-0.181-3.056
			c-0.743-6.115,1.863-12.05,6.801-15.489l12.943-9.143c0,0-2.605,8.605-1.205,20.011c0.304,2.476,0.749,5.018,0.749,7.641
			c0,11.659-4.15,21.761-12.334,30.028C149.007,117.843,137.983,122.441,126.704,122.441z"/>
	</g>
</g>
</svg>
