<?xml version="1.0" encoding="utf-8"?>
<!-- Generator: Adobe Illustrator 24.0.2, SVG Export Plug-In . SVG Version: 6.00 Build 0)  -->
<svg version="1.1" id="Ebene_1" xmlns="http://www.w3.org/2000/svg" xmlns:xlink="http://www.w3.org/1999/xlink" x="0px" y="0px"
	 viewBox="0 0 73.45 82.94" style="enable-background:new 0 0 73.45 82.94;" xml:space="preserve">
<style type="text/css">
	.st0{fill:url(#SVGID_1_);}
	.st1{fill:url(#SVGID_2_);}
</style>
<g>
	
		<linearGradient id="SVGID_1_" gradientUnits="userSpaceOnUse" x1="-78.6217" y1="824.0416" x2="-77.6217" y2="824.0416" gradientTransform="matrix(59.4837 -52.8121 -52.8121 -59.4837 48209.6875 44930.4102)">
		<stop  offset="0" style="stop-color:#1AFFFF"/>
		<stop  offset="5.439560e-03" style="stop-color:#1AFFFF"/>
		<stop  offset="0.9836" style="stop-color:#1AA6FF"/>
		<stop  offset="1" style="stop-color:#1AA6FF"/>
	</linearGradient>
	<path class="st0" d="M3.58,40.23v1C2.71,41.23,2,41.94,2,42.81v36.55c0,0.87,0.71,1.58,1.58,1.58h30.1c0.87,0,1.58-0.71,1.58-1.58
		V42.81c0-0.87-0.71-1.58-1.58-1.58H3.58L3.58,40.23v-1h30.1c1.98,0,3.58,1.6,3.58,3.58v36.55c0,1.98-1.6,3.58-3.58,3.58H3.58
		C1.6,82.94,0,81.34,0,79.36l0-36.55c0-1.98,1.6-3.58,3.58-3.58V40.23z"/>
	
		<linearGradient id="SVGID_2_" gradientUnits="userSpaceOnUse" x1="-78.6217" y1="824.0768" x2="-77.6217" y2="824.0768" gradientTransform="matrix(59.4837 -52.8121 -52.8121 -59.4837 48209.6875 44930.4102)">
		<stop  offset="0" style="stop-color:#1AFFFF"/>
		<stop  offset="5.439560e-03" style="stop-color:#1AFFFF"/>
		<stop  offset="0.9836" style="stop-color:#1AA6FF"/>
		<stop  offset="1" style="stop-color:#1AA6FF"/>
	</linearGradient>
	<path class="st1" d="M36.38,70.27h30.41c1.93-0.06,4.66-1.17,4.66-4.66V6.66C71.4,4.74,70.28,2,66.79,2H18.24
		c-1.93,0.06-4.66,1.17-4.66,4.66v33c0,0.55-0.45,1-1,1c-0.55,0-1-0.45-1-1l0-33c0-4.82,4.04-6.65,6.66-6.66h48.55
		c4.82,0,6.65,4.04,6.66,6.66v58.95c0,4.82-4.04,6.65-6.66,6.66H36.38c-0.55,0-1-0.45-1-1S35.83,70.27,36.38,70.27L36.38,70.27z"/>
</g>
</svg>
