<?xml version="1.0" encoding="utf-8"?>
<!-- Generator: Adobe Illustrator 24.0.2, SVG Export Plug-In . SVG Version: 6.00 Build 0)  -->
<svg version="1.1" id="Ebene_1" xmlns="http://www.w3.org/2000/svg" xmlns:xlink="http://www.w3.org/1999/xlink" x="0px" y="0px"
	 viewBox="0 0 108.8 69.87" style="enable-background:new 0 0 108.8 69.87;" xml:space="preserve">
<style type="text/css">
	.st0{fill:url(#SVGID_1_);}
	.st1{fill:url(#SVGID_2_);}
	.st2{fill:url(#SVGID_3_);}
	.st3{fill:url(#SVGID_4_);}
</style>
<g>
	
		<linearGradient id="SVGID_1_" gradientUnits="userSpaceOnUse" x1="-108.7897" y1="719.5863" x2="-107.7897" y2="719.5863" gradientTransform="matrix(75.4286 -59.5699 -59.5699 -75.4286 51116.2148 47885.9922)">
		<stop  offset="0" style="stop-color:#1AFFFF"/>
		<stop  offset="5.439560e-03" style="stop-color:#1AFFFF"/>
		<stop  offset="0.9836" style="stop-color:#1AA6FF"/>
		<stop  offset="1" style="stop-color:#1AA6FF"/>
	</linearGradient>
	<path class="st0" d="M78.52,58.39h1c0.01,5.24,4.25,9.47,9.48,9.48c5.24-0.01,9.47-4.24,9.48-9.48v-8.4
		c-0.01-5.24-4.24-9.47-9.48-9.48c-5.24,0.01-9.47,4.25-9.48,9.48v8.4H78.52h-1v-8.4c0-6.34,5.14-11.48,11.48-11.48
		c6.34,0,11.48,5.14,11.48,11.48v8.4c0,6.34-5.14,11.48-11.48,11.48c-6.34,0-11.48-5.14-11.48-11.48H78.52z"/>
</g>
<linearGradient id="SVGID_2_" gradientUnits="userSpaceOnUse" x1="-108.7897" y1="719.6406" x2="-107.7897" y2="719.6406" gradientTransform="matrix(75.4286 -59.5699 -59.5699 -75.4286 51116.2148 47885.9961)">
	<stop  offset="0" style="stop-color:#1AFFFF"/>
	<stop  offset="5.439560e-03" style="stop-color:#1AFFFF"/>
	<stop  offset="0.9836" style="stop-color:#1AA6FF"/>
	<stop  offset="1" style="stop-color:#1AA6FF"/>
</linearGradient>
<path class="st1" d="M90.01,45.1v4.89c0,0.55-0.45,1-1,1c-0.55,0-1-0.45-1-1V45.1c0-0.55,0.45-1,1-1
	C89.56,44.1,90.01,44.55,90.01,45.1"/>
<g>
	
		<linearGradient id="SVGID_3_" gradientUnits="userSpaceOnUse" x1="-108.7897" y1="720.0277" x2="-107.7897" y2="720.0277" gradientTransform="matrix(75.4286 -59.5699 -59.5699 -75.4286 51116.2148 47885.9922)">
		<stop  offset="0" style="stop-color:#1AFFFF"/>
		<stop  offset="5.439560e-03" style="stop-color:#1AFFFF"/>
		<stop  offset="0.9836" style="stop-color:#1AA6FF"/>
		<stop  offset="1" style="stop-color:#1AA6FF"/>
	</linearGradient>
	<path class="st2" d="M0.44,34.77c13.71-9.14,16.65-15.71,28.1-15.76c5.62,0,13.13,1.59,25.04,5.1c12.24,3.61,20.13,5.04,25.93,5.03
		c10.96,0.02,14.84-5.07,27.89-10.75c0.51-0.22,1.1,0.01,1.32,0.52c0.22,0.51-0.01,1.1-0.52,1.32
		c-12.62,5.43-16.91,10.89-28.68,10.91c-6.13,0-14.17-1.48-26.5-5.12c-11.84-3.5-19.24-5.02-24.47-5.02
		c-10.33-0.05-12.86,5.91-26.99,15.42c-0.46,0.31-1.08,0.18-1.39-0.27S-0.02,35.07,0.44,34.77L0.44,34.77z"/>
	
		<linearGradient id="SVGID_4_" gradientUnits="userSpaceOnUse" x1="-108.7897" y1="720.0152" x2="-107.7897" y2="720.0152" gradientTransform="matrix(75.4286 -59.5699 -59.5699 -75.4286 51116.2148 47885.9922)">
		<stop  offset="0" style="stop-color:#1AFFFF"/>
		<stop  offset="5.439560e-03" style="stop-color:#1AFFFF"/>
		<stop  offset="0.9836" style="stop-color:#1AA6FF"/>
		<stop  offset="1" style="stop-color:#1AA6FF"/>
	</linearGradient>
	<path class="st3" d="M90.86,39.15V6.66C90.8,4.73,89.69,2,86.2,2H27.25c-1.93,0.06-4.66,1.17-4.66,4.66v48.55
		c0.06,1.93,1.17,4.66,4.66,4.66h51.4c0.55,0,1,0.45,1,1s-0.45,1-1,1h-51.4c-4.82,0-6.66-4.04-6.66-6.66V6.66
		c0-4.82,4.04-6.65,6.66-6.66H86.2c4.82,0,6.65,4.04,6.66,6.66v32.49c0,0.55-0.45,1-1,1C91.31,40.15,90.86,39.7,90.86,39.15
		L90.86,39.15z"/>
</g>
</svg>
