<?xml version="1.0" encoding="utf-8"?>
<!-- Generator: Adobe Illustrator 24.0.2, SVG Export Plug-In . SVG Version: 6.00 Build 0)  -->
<svg version="1.1" id="Ebene_1" xmlns="http://www.w3.org/2000/svg" xmlns:xlink="http://www.w3.org/1999/xlink" x="0px" y="0px"
	 viewBox="0 0 156.08 64.14" style="enable-background:new 0 0 156.08 64.14;" xml:space="preserve">
<style type="text/css">
	.st0{fill:url(#SVGID_1_);}
	.st1{fill:url(#SVGID_2_);}
	.st2{fill:url(#SVGID_3_);}
	.st3{fill:url(#SVGID_4_);}
	.st4{fill:url(#SVGID_5_);}
	.st5{fill:url(#SVGID_6_);}
	.st6{fill:url(#SVGID_7_);}
	.st7{fill:url(#SVGID_8_);}
	.st8{fill:url(#SVGID_9_);}
	.st9{fill:url(#SVGID_10_);}
	.st10{fill:url(#SVGID_11_);}
	.st11{fill:url(#SVGID_12_);}
	.st12{fill:url(#SVGID_13_);}
	.st13{fill:url(#SVGID_14_);}
</style>
<g>
	
		<linearGradient id="SVGID_1_" gradientUnits="userSpaceOnUse" x1="-41.4607" y1="807.7111" x2="-40.4607" y2="807.7111" gradientTransform="matrix(96.1007 -43.7956 -43.7956 -96.1007 39387.2578 75860.3359)">
		<stop  offset="0" style="stop-color:#1AFFFF"/>
		<stop  offset="5.439560e-03" style="stop-color:#1AFFFF"/>
		<stop  offset="0.9836" style="stop-color:#1AA6FF"/>
		<stop  offset="1" style="stop-color:#1AA6FF"/>
	</linearGradient>
	<path class="st0" d="M100.75,25.19l-0.96,0.29c-0.44-1.45-1.01-2.83-1.7-4.14l-0.28-0.53l4.63-6.91l-6.23-6.23l-6.89,4.61L88.79,12
		c-1.32-0.71-2.71-1.29-4.17-1.73l-0.58-0.17L82.44,2h-8.81l-1.6,8.1l-0.58,0.17c-1.44,0.43-2.82,1.01-4.12,1.7l-0.53,0.28
		l-6.89-4.62l-6.23,6.23l4.61,6.89l-0.28,0.53c-0.71,1.32-1.29,2.73-1.73,4.19l-0.17,0.58l-8.14,1.61v8.81l8.16,1.61l0.17,0.57
		c0.44,1.44,1.01,2.81,1.71,4.11l0.29,0.53l-4.62,6.9l6.23,6.23l6.92-4.63l0.53,0.28c1.29,0.69,2.65,1.26,4.08,1.69l0.57,0.17
		l1.62,8.2h8.81l1.62-8.2l0.57-0.17c1.44-0.44,2.82-1.01,4.13-1.71l0.53-0.28l6.91,4.63l6.23-6.23l-4.64-6.92l0.28-0.53
		c0.69-1.28,1.25-2.64,1.69-4.06l0.18-0.57l8.16-1.61l0-8.81l-8.14-1.61l-0.17-0.58L100.75,25.19l0.19-0.98l9.16,1.81v12.1
		l-9.19,1.82l-0.19-0.98l0.96,0.29c-0.47,1.54-1.09,3.02-1.84,4.41l-0.88-0.47l0.83-0.56l5.22,7.79l-8.55,8.55l-7.78-5.21l0.56-0.83
		l0.47,0.88c-1.42,0.76-2.92,1.39-4.49,1.86l-0.29-0.96l0.98,0.19l-1.82,9.23h-12.1l-1.82-9.23l0.98-0.19l-0.29,0.96
		c-1.55-0.47-3.03-1.09-4.44-1.84l0.47-0.88l0.56,0.83L59.66,59l-8.55-8.55l5.2-7.76l0.83,0.56l-0.88,0.47
		c-0.76-1.41-1.39-2.91-1.86-4.47l0.96-0.29l-0.19,0.98l-9.19-1.82v-12.1l9.16-1.81l0.19,0.98l-0.96-0.29
		c0.48-1.59,1.11-3.12,1.88-4.56l0.88,0.47l-0.83,0.56l-5.19-7.75l8.55-8.55l7.76,5.2l-0.56,0.83l-0.47-0.88
		c1.42-0.76,2.92-1.38,4.49-1.86l0.29,0.96l-0.98-0.19L71.99,0h12.1l1.8,9.12l-0.98,0.19l0.29-0.96c1.58,0.48,3.1,1.11,4.54,1.88
		l-0.47,0.88l-0.56-0.83l7.75-5.19l8.55,8.55l-5.21,7.78l-0.83-0.56l0.88-0.47c0.76,1.43,1.38,2.93,1.86,4.51L100.75,25.19
		l0.19-0.98L100.75,25.19z"/>
	
		<linearGradient id="SVGID_2_" gradientUnits="userSpaceOnUse" x1="-41.4607" y1="807.7077" x2="-40.4607" y2="807.7077" gradientTransform="matrix(96.1007 -43.7956 -43.7956 -96.1007 39387.2578 75860.3359)">
		<stop  offset="0" style="stop-color:#1AFFFF"/>
		<stop  offset="5.439560e-03" style="stop-color:#1AFFFF"/>
		<stop  offset="0.9836" style="stop-color:#1AA6FF"/>
		<stop  offset="1" style="stop-color:#1AA6FF"/>
	</linearGradient>
	<path class="st1" d="M68.81,32.02c0.01,4.98,4.04,9.01,9.02,9.02c4.98-0.01,9.01-4.04,9.01-9.02c-0.01-4.98-4.04-9.01-9.01-9.02
		c-0.55,0-1-0.45-1-1c0-0.55,0.45-1,1-1c6.08,0,11.01,4.93,11.01,11.02c0,6.08-4.93,11.01-11.01,11.02
		c-6.08,0-11.02-4.93-11.02-11.02c0-0.55,0.45-1,1-1C68.37,31.02,68.81,31.47,68.81,32.02L68.81,32.02z"/>
</g>
<linearGradient id="SVGID_3_" gradientUnits="userSpaceOnUse" x1="-41.4607" y1="807.4976" x2="-40.4607" y2="807.4976" gradientTransform="matrix(96.1007 -43.7956 -43.7956 -96.1007 39387.2578 75860.3359)">
	<stop  offset="0" style="stop-color:#1AFFFF"/>
	<stop  offset="5.439560e-03" style="stop-color:#1AFFFF"/>
	<stop  offset="0.9836" style="stop-color:#1AA6FF"/>
	<stop  offset="1" style="stop-color:#1AA6FF"/>
</linearGradient>
<path class="st2" d="M115.95,31.69h30.02c0.55,0,1,0.45,1,1s-0.45,1-1,1h-30.02c-0.55,0-1-0.45-1-1S115.4,31.69,115.95,31.69"/>
<g>
	
		<linearGradient id="SVGID_4_" gradientUnits="userSpaceOnUse" x1="-41.4607" y1="807.4182" x2="-40.4607" y2="807.4182" gradientTransform="matrix(96.1007 -43.7956 -43.7956 -96.1007 39387.2578 75860.3359)">
		<stop  offset="0" style="stop-color:#1AFFFF"/>
		<stop  offset="5.439560e-03" style="stop-color:#1AFFFF"/>
		<stop  offset="0.9836" style="stop-color:#1AA6FF"/>
		<stop  offset="1" style="stop-color:#1AA6FF"/>
	</linearGradient>
	<path class="st3" d="M150.94,36.94v-1c1.73,0,3.14-1.41,3.14-3.14c0-1.73-1.41-3.14-3.14-3.14c-1.73,0-3.14,1.41-3.14,3.14
		c0,1.73,1.41,3.14,3.14,3.14V36.94v1c-2.84,0-5.14-2.3-5.14-5.14c0-2.84,2.3-5.14,5.14-5.14c2.84,0,5.14,2.3,5.14,5.14
		c0,2.84-2.3,5.14-5.14,5.14V36.94z"/>
</g>
<linearGradient id="SVGID_5_" gradientUnits="userSpaceOnUse" x1="-41.4607" y1="807.3727" x2="-40.4607" y2="807.3727" gradientTransform="matrix(96.1007 -43.7956 -43.7956 -96.1007 39387.2578 75860.3359)">
	<stop  offset="0" style="stop-color:#1AFFFF"/>
	<stop  offset="5.439560e-03" style="stop-color:#1AFFFF"/>
	<stop  offset="0.9836" style="stop-color:#1AA6FF"/>
	<stop  offset="1" style="stop-color:#1AA6FF"/>
</linearGradient>
<path class="st4" d="M121.83,44.41l3.85,3.85h15.11c0.55,0,1,0.45,1,1s-0.45,1-1,1h-15.53l-0.71-0.29l-4.14-4.14
	c-0.39-0.39-0.39-1.02,0-1.41C120.81,44.02,121.44,44.02,121.83,44.41L121.83,44.41z"/>
<g>
	
		<linearGradient id="SVGID_6_" gradientUnits="userSpaceOnUse" x1="-41.4607" y1="807.2974" x2="-40.4607" y2="807.2974" gradientTransform="matrix(96.1007 -43.7956 -43.7956 -96.1007 39387.2578 75860.3359)">
		<stop  offset="0" style="stop-color:#1AFFFF"/>
		<stop  offset="5.439560e-03" style="stop-color:#1AFFFF"/>
		<stop  offset="0.9836" style="stop-color:#1AA6FF"/>
		<stop  offset="1" style="stop-color:#1AA6FF"/>
	</linearGradient>
	<path class="st5" d="M145.14,53.6v-1c1.73,0,3.14-1.41,3.14-3.14c0-1.73-1.41-3.14-3.14-3.14c-1.73,0-3.14,1.41-3.14,3.14
		c0,1.73,1.41,3.14,3.14,3.14V53.6v1c-2.84,0-5.14-2.3-5.14-5.14c0-2.84,2.3-5.14,5.14-5.14c2.84,0,5.14,2.3,5.14,5.14
		c0,2.84-2.3,5.14-5.14,5.14V53.6z"/>
</g>
<linearGradient id="SVGID_7_" gradientUnits="userSpaceOnUse" x1="-41.4607" y1="795.3295" x2="-40.4607" y2="795.3295" gradientTransform="matrix(96.1007 -43.7956 43.7956 96.1007 -30815.2383 -78185.0312)">
	<stop  offset="0" style="stop-color:#1AFFFF"/>
	<stop  offset="5.439560e-03" style="stop-color:#1AFFFF"/>
	<stop  offset="0.9836" style="stop-color:#1AA6FF"/>
	<stop  offset="1" style="stop-color:#1AA6FF"/>
</linearGradient>
<path class="st6" d="M120.42,19.98l4.14-4.14l0.71-0.29h15.53c0.55,0,1,0.45,1,1c0,0.55-0.45,1-1,1l-15.11,0l-3.85,3.85
	c-0.39,0.39-1.02,0.39-1.41,0C120.03,21,120.03,20.37,120.42,19.98L120.42,19.98z"/>
<g>
	
		<linearGradient id="SVGID_8_" gradientUnits="userSpaceOnUse" x1="-41.4607" y1="795.3749" x2="-40.4607" y2="795.3749" gradientTransform="matrix(96.1007 -43.7956 43.7956 96.1007 -30815.2383 -78185.0312)">
		<stop  offset="0" style="stop-color:#1AFFFF"/>
		<stop  offset="5.439560e-03" style="stop-color:#1AFFFF"/>
		<stop  offset="0.9836" style="stop-color:#1AA6FF"/>
		<stop  offset="1" style="stop-color:#1AA6FF"/>
	</linearGradient>
	<path class="st7" d="M145.14,12.2v-1c2.84,0,5.14,2.3,5.14,5.14c0,2.84-2.3,5.14-5.14,5.14c-2.84,0-5.14-2.3-5.14-5.14
		c0-2.84,2.3-5.14,5.14-5.14V12.2v1c-1.73,0-3.14,1.41-3.14,3.14c0,1.73,1.41,3.14,3.14,3.14c1.73,0,3.14-1.41,3.14-3.14
		c0-1.73-1.41-3.14-3.14-3.14V12.2z"/>
</g>
<linearGradient id="SVGID_9_" gradientUnits="userSpaceOnUse" x1="-41.4607" y1="795.0446" x2="-40.4607" y2="795.0446" gradientTransform="matrix(96.1007 -43.7956 43.7956 96.1007 -30815.2383 -78185.0312)">
	<stop  offset="0" style="stop-color:#1AFFFF"/>
	<stop  offset="5.439560e-03" style="stop-color:#1AFFFF"/>
	<stop  offset="0.9836" style="stop-color:#1AA6FF"/>
	<stop  offset="1" style="stop-color:#1AA6FF"/>
</linearGradient>
<path class="st8" d="M40.13,33.69H10.11c-0.55,0-1-0.45-1-1s0.45-1,1-1h30.02c0.55,0,1,0.45,1,1S40.68,33.69,40.13,33.69"/>
<g>
	
		<linearGradient id="SVGID_10_" gradientUnits="userSpaceOnUse" x1="-41.4607" y1="794.967" x2="-40.4607" y2="794.967" gradientTransform="matrix(96.1007 -43.7956 43.7956 96.1007 -30815.2383 -78185.0312)">
		<stop  offset="0" style="stop-color:#1AFFFF"/>
		<stop  offset="5.439560e-03" style="stop-color:#1AFFFF"/>
		<stop  offset="0.9836" style="stop-color:#1AA6FF"/>
		<stop  offset="1" style="stop-color:#1AA6FF"/>
	</linearGradient>
	<path class="st9" d="M5.14,36.94v1C2.3,37.94,0,35.64,0,32.8c0-2.84,2.3-5.14,5.14-5.14c2.84,0,5.14,2.3,5.14,5.14
		c0,2.84-2.3,5.14-5.14,5.14V36.94v-1c1.73,0,3.14-1.41,3.14-3.14c0-1.73-1.41-3.14-3.14-3.14C3.41,29.66,2,31.06,2,32.8
		c0,1.73,1.41,3.14,3.14,3.14V36.94z"/>
</g>
<linearGradient id="SVGID_11_" gradientUnits="userSpaceOnUse" x1="-41.4607" y1="795.1789" x2="-40.4607" y2="795.1789" gradientTransform="matrix(96.1007 -43.7956 43.7956 96.1007 -30815.2383 -78185.0312)">
	<stop  offset="0" style="stop-color:#1AFFFF"/>
	<stop  offset="5.439560e-03" style="stop-color:#1AFFFF"/>
	<stop  offset="0.9836" style="stop-color:#1AA6FF"/>
	<stop  offset="1" style="stop-color:#1AA6FF"/>
</linearGradient>
<path class="st10" d="M35.66,45.82l-4.14,4.14l-0.71,0.29H15.29c-0.55,0-1-0.45-1-1s0.45-1,1-1H30.4l3.85-3.85
	c0.39-0.39,1.02-0.39,1.41,0C36.05,44.8,36.05,45.43,35.66,45.82L35.66,45.82z"/>
<g>
	
		<linearGradient id="SVGID_12_" gradientUnits="userSpaceOnUse" x1="-41.4607" y1="795.1334" x2="-40.4607" y2="795.1334" gradientTransform="matrix(96.1007 -43.7956 43.7956 96.1007 -30815.2383 -78185.0234)">
		<stop  offset="0" style="stop-color:#1AFFFF"/>
		<stop  offset="5.439560e-03" style="stop-color:#1AFFFF"/>
		<stop  offset="0.9836" style="stop-color:#1AA6FF"/>
		<stop  offset="1" style="stop-color:#1AA6FF"/>
	</linearGradient>
	<path class="st11" d="M10.94,53.6v1c-2.84,0-5.14-2.3-5.14-5.14c0-2.84,2.3-5.14,5.14-5.14c2.84,0,5.14,2.3,5.14,5.14
		c0,2.84-2.3,5.14-5.14,5.14V53.6v-1c1.73,0,3.14-1.41,3.14-3.14c0-1.73-1.41-3.14-3.14-3.14c-1.73,0-3.14,1.41-3.14,3.14
		c0,1.73,1.41,3.14,3.14,3.14V53.6z"/>
</g>
<linearGradient id="SVGID_13_" gradientUnits="userSpaceOnUse" x1="-41.4607" y1="808.0344" x2="-40.4607" y2="808.0344" gradientTransform="matrix(96.1007 -43.7956 -43.7956 -96.1007 39387.2578 75860.3359)">
	<stop  offset="0" style="stop-color:#1AFFFF"/>
	<stop  offset="5.439560e-03" style="stop-color:#1AFFFF"/>
	<stop  offset="0.9836" style="stop-color:#1AA6FF"/>
	<stop  offset="1" style="stop-color:#1AA6FF"/>
</linearGradient>
<path class="st12" d="M34.25,21.39l-3.85-3.85H15.29c-0.55,0-1-0.45-1-1c0-0.55,0.45-1,1-1l15.53,0l0.71,0.29l4.14,4.14
	c0.39,0.39,0.39,1.02,0,1.41C35.27,21.78,34.64,21.78,34.25,21.39L34.25,21.39z"/>
<g>
	
		<linearGradient id="SVGID_14_" gradientUnits="userSpaceOnUse" x1="-41.4607" y1="808.1097" x2="-40.4607" y2="808.1097" gradientTransform="matrix(96.1007 -43.7956 -43.7956 -96.1007 39387.2578 75860.3359)">
		<stop  offset="0" style="stop-color:#1AFFFF"/>
		<stop  offset="5.439560e-03" style="stop-color:#1AFFFF"/>
		<stop  offset="0.9836" style="stop-color:#1AA6FF"/>
		<stop  offset="1" style="stop-color:#1AA6FF"/>
	</linearGradient>
	<path class="st13" d="M10.94,12.2v1c-1.73,0-3.14,1.41-3.14,3.14c0,1.73,1.41,3.14,3.14,3.14c1.73,0,3.14-1.41,3.14-3.14
		c0-1.73-1.41-3.14-3.14-3.14V12.2v-1c2.84,0,5.14,2.3,5.14,5.14c0,2.84-2.3,5.14-5.14,5.14c-2.84,0-5.14-2.3-5.14-5.14
		c0-2.84,2.3-5.14,5.14-5.14V12.2z"/>
</g>
</svg>
